{
	"asset":{
		"generator":"Khronos glTF Blender I/O v4.3.47",
		"version":"2.0"
	},
	"extensionsUsed":[
		"KHR_materials_specular"
	],
	"scene":0,
	"scenes":[
		{
			"name":"Scene",
			"nodes":[
				0,
				1,
				2,
				3
			]
		}
	],
	"nodes":[
		{
			"mesh":0,
			"name":"Bow",
			"rotation":[
				-0.09934563934803009,
				-0.13624389469623566,
				0.024357201531529427,
				0.9853805303573608
			],
			"scale":[
				0.961436927318573,
				0.961436927318573,
				0.9614369869232178
			],
			"translation":[
				-0.28749212622642517,
				0.4130069315433502,
				0.5203332304954529
			]
		},
		{
			"mesh":1,
			"name":"Body"
		},
		{
			"mesh":2,
			"name":"Object"
		},
		{
			"mesh":3,
			"name":"Torus.001"
		}
	],
	"materials":[
		{
			"doubleSided":true,
			"name":"Material.001",
			"pbrMetallicRoughness":{
				"metallicFactor":0,
				"roughnessFactor":0.7400000095367432
			}
		},
		{
			"doubleSided":true,
			"extensions":{
				"KHR_materials_specular":{
					"specularFactor":0.7798165082931519
				}
			},
			"name":"Ghost White",
			"pbrMetallicRoughness":{
				"baseColorTexture":{
					"index":0
				},
				"metallicFactor":0,
				"roughnessFactor":0.8408840894699097
			}
		},
		{
			"doubleSided":true,
			"extensions":{
				"KHR_materials_specular":{
					"specularFactor":0.43119263648986816
				}
			},
			"name":"Eyes",
			"pbrMetallicRoughness":{
				"baseColorFactor":[
					0.08398930728435516,
					0.08398930728435516,
					0.08398930728435516,
					1
				],
				"metallicFactor":0,
				"roughnessFactor":0.7990825772285461
			}
		},
		{
			"doubleSided":true,
			"name":"Material.009",
			"pbrMetallicRoughness":{
				"baseColorFactor":[
					0.658371090888977,
					0.19120174646377563,
					0.38132619857788086,
					1
				],
				"metallicFactor":0.24909090101718903,
				"roughnessFactor":0
			}
		},
		{
			"doubleSided":true,
			"name":"Material.002",
			"pbrMetallicRoughness":{
				"baseColorFactor":[
					0.658371090888977,
					0.19120174646377563,
					0.38132619857788086,
					1
				],
				"metallicFactor":0.24909090101718903,
				"roughnessFactor":0
			}
		},
		{
			"doubleSided":true,
			"name":"Material.004",
			"pbrMetallicRoughness":{
				"baseColorFactor":[
					0.658371090888977,
					0.19120174646377563,
					0.38132619857788086,
					1
				],
				"metallicFactor":0.24909090101718903,
				"roughnessFactor":0
			}
		},
		{
			"doubleSided": true,
			"name": "Material.005",
			"pbrMetallicRoughness": {
			"baseColorFactor": [
				0.8914910043171219,
				0.6391636848742284,
				0.6391636848742284,
				1.0
			 ],
			"metallicFactor": 0.13090908527374268,
			"roughnessFactor": 0.0
		}
}

	],
	"meshes":[
		{
			"name":"Bow",
			"primitives":[
				{
					"attributes":{
						"POSITION":0,
						"NORMAL":1,
						"TEXCOORD_0":2,
						"TEXCOORD_1":3,
						"COLOR_0":4,
						"COLOR_1":5
					},
					"indices":6,
					"material":6
				}
			]
		},
		{
			"name":"Mesh",
			"primitives":[
				{
					"attributes":{
						"POSITION":7,
						"NORMAL":8,
						"TEXCOORD_0":9,
						"TEXCOORD_1":10,
						"COLOR_0":11,
						"COLOR_1":12
					},
					"indices":13,
					"material":1
				}
			]
		},
		{
			"name":"Sphere",
			"primitives":[
				{
					"attributes":{
						"POSITION":14,
						"NORMAL":15,
						"TEXCOORD_0":16,
						"TEXCOORD_1":17
					},
					"indices":18,
					"material":1
				},
				{
					"attributes":{
						"POSITION":19,
						"NORMAL":20,
						"TEXCOORD_0":21,
						"TEXCOORD_1":22
					},
					"indices":23,
					"material":2
				}
			]
		},
		{
			"name":"Torus.006",
			"primitives":[
				{
					"attributes":{
						"POSITION":24,
						"NORMAL":25,
						"TEXCOORD_0":26,
						"TEXCOORD_1":27
					},
					"indices":28,
					"material":6
				},
				{
					"attributes":{
						"POSITION":29,
						"NORMAL":30,
						"TEXCOORD_0":31,
						"TEXCOORD_1":32
					},
					"indices":33,
					"material":6
				},
				{
					"attributes":{
						"POSITION":34,
						"NORMAL":35,
						"TEXCOORD_0":36,
						"TEXCOORD_1":37
					},
					"indices":38,
					"material":6
				}
			]
		}
	],
	"textures":[
		{
			"sampler":0,
			"source":0
		}
	],
	"images":[
		{
			"mimeType":"image/png",
			"name":"Ghost White Base Color",
			"uri":"Ghost%20White%20Base%20Color.png"
		}
	],
	"accessors":[
		{
			"bufferView":0,
			"componentType":5126,
			"count":1392,
			"max":[
				0.12962129712104797,
				3.2045037746429443,
				-0.4089292287826538
			],
			"min":[
				-0.6185079216957092,
				2.2425894737243652,
				-1.5577738285064697
			],
			"type":"VEC3"
		},
		{
			"bufferView":1,
			"componentType":5126,
			"count":1392,
			"type":"VEC3"
		},
		{
			"bufferView":2,
			"componentType":5126,
			"count":1392,
			"type":"VEC2"
		},
		{
			"bufferView":3,
			"componentType":5126,
			"count":1392,
			"type":"VEC2"
		},
		{
			"bufferView":4,
			"componentType":5121,
			"count":1392,
			"normalized":true,
			"type":"VEC4"
		},
		{
			"bufferView":5,
			"componentType":5123,
			"count":1392,
			"normalized":true,
			"type":"VEC4"
		},
		{
			"bufferView":6,
			"componentType":5123,
			"count":3111,
			"type":"SCALAR"
		},
		{
			"bufferView":7,
			"componentType":5126,
			"count":48702,
			"max":[
				-0.040687721222639084,
				3.236384391784668,
				0.6773748993873596
			],
			"min":[
				-1.943695306777954,
				0.7829151153564453,
				-1.7807214260101318
			],
			"type":"VEC3"
		},
		{
			"bufferView":8,
			"componentType":5126,
			"count":48702,
			"type":"VEC3"
		},
		{
			"bufferView":9,
			"componentType":5126,
			"count":48702,
			"type":"VEC2"
		},
		{
			"bufferView":10,
			"componentType":5126,
			"count":48702,
			"type":"VEC2"
		},
		{
			"bufferView":11,
			"componentType":5121,
			"count":48702,
			"normalized":true,
			"type":"VEC4"
		},
		{
			"bufferView":12,
			"componentType":5123,
			"count":48702,
			"normalized":true,
			"type":"VEC4"
		},
		{
			"bufferView":13,
			"componentType":5123,
			"count":264192,
			"type":"SCALAR"
		},
		{
			"bufferView":14,
			"componentType":5126,
			"count":1374,
			"max":[
				-0.03301640599966049,
				2.4023334980010986,
				-0.03656339645385742
			],
			"min":[
				-0.18173709511756897,
				2.2998857498168945,
				-0.8390066623687744
			],
			"type":"VEC3"
		},
		{
			"bufferView":15,
			"componentType":5126,
			"count":1374,
			"type":"VEC3"
		},
		{
			"bufferView":16,
			"componentType":5126,
			"count":1374,
			"type":"VEC2"
		},
		{
			"bufferView":17,
			"componentType":5126,
			"count":1374,
			"type":"VEC2"
		},
		{
			"bufferView":18,
			"componentType":5123,
			"count":5760,
			"type":"SCALAR"
		},
		{
			"bufferView":19,
			"componentType":5126,
			"count":1376,
			"max":[
				-0.023699961602687836,
				2.4632554054260254,
				0.09947538375854492
			],
			"min":[
				-0.2980409562587738,
				2.106201171875,
				-0.8998403549194336
			],
			"type":"VEC3"
		},
		{
			"bufferView":20,
			"componentType":5126,
			"count":1376,
			"type":"VEC3"
		},
		{
			"bufferView":21,
			"componentType":5126,
			"count":1376,
			"type":"VEC2"
		},
		{
			"bufferView":22,
			"componentType":5126,
			"count":1376,
			"type":"VEC2"
		},
		{
			"bufferView":23,
			"componentType":5123,
			"count":5760,
			"type":"SCALAR"
		},
		{
			"bufferView":24,
			"componentType":5126,
			"count":384,
			"max":[
				-0.0039048269391059875,
				2.5717153549194336,
				-0.485606849193573
			],
			"min":[
				-0.137874037027359,
				2.0123651027679443,
				-1.0334604978561401
			],
			"type":"VEC3"
		},
		{
			"bufferView":25,
			"componentType":5126,
			"count":384,
			"type":"VEC3"
		},
		{
			"bufferView":26,
			"componentType":5126,
			"count":384,
			"type":"VEC2"
		},
		{
			"bufferView":27,
			"componentType":5126,
			"count":384,
			"type":"VEC2"
		},
		{
			"bufferView":28,
			"componentType":5123,
			"count":576,
			"type":"SCALAR"
		},
		{
			"bufferView":29,
			"componentType":5126,
			"count":23,
			"max":[
				0.012419342994689941,
				2.2897019386291504,
				-0.24328166246414185
			],
			"min":[
				-0.08708350360393524,
				2.2453577518463135,
				-0.5220972299575806
			],
			"type":"VEC3"
		},
		{
			"bufferView":30,
			"componentType":5126,
			"count":23,
			"type":"VEC3"
		},
		{
			"bufferView":31,
			"componentType":5126,
			"count":23,
			"type":"VEC2"
		},
		{
			"bufferView":32,
			"componentType":5126,
			"count":23,
			"type":"VEC2"
		},
		{
			"bufferView":33,
			"componentType":5123,
			"count":57,
			"type":"SCALAR"
		},
		{
			"bufferView":34,
			"componentType":5126,
			"count":384,
			"max":[
				-0.04978190362453461,
				2.5439772605895996,
				0.19497671723365784
			],
			"min":[
				-0.3488871455192566,
				1.984535813331604,
				-0.28423434495925903
			],
			"type":"VEC3"
		},
		{
			"bufferView":35,
			"componentType":5126,
			"count":384,
			"type":"VEC3"
		},
		{
			"bufferView":36,
			"componentType":5126,
			"count":384,
			"type":"VEC2"
		},
		{
			"bufferView":37,
			"componentType":5126,
			"count":384,
			"type":"VEC2"
		},
		{
			"bufferView":38,
			"componentType":5123,
			"count":576,
			"type":"SCALAR"
		}
	],
	"bufferViews":[
		{
			"buffer":0,
			"byteLength":16704,
			"byteOffset":0,
			"target":34962
		},
		{
			"buffer":0,
			"byteLength":16704,
			"byteOffset":16704,
			"target":34962
		},
		{
			"buffer":0,
			"byteLength":11136,
			"byteOffset":33408,
			"target":34962
		},
		{
			"buffer":0,
			"byteLength":11136,
			"byteOffset":44544,
			"target":34962
		},
		{
			"buffer":0,
			"byteLength":5568,
			"byteOffset":55680,
			"target":34962
		},
		{
			"buffer":0,
			"byteLength":11136,
			"byteOffset":61248,
			"target":34962
		},
		{
			"buffer":0,
			"byteLength":6222,
			"byteOffset":72384,
			"target":34963
		},
		{
			"buffer":0,
			"byteLength":584424,
			"byteOffset":78608,
			"target":34962
		},
		{
			"buffer":0,
			"byteLength":584424,
			"byteOffset":663032,
			"target":34962
		},
		{
			"buffer":0,
			"byteLength":389616,
			"byteOffset":1247456,
			"target":34962
		},
		{
			"buffer":0,
			"byteLength":389616,
			"byteOffset":1637072,
			"target":34962
		},
		{
			"buffer":0,
			"byteLength":194808,
			"byteOffset":2026688,
			"target":34962
		},
		{
			"buffer":0,
			"byteLength":389616,
			"byteOffset":2221496,
			"target":34962
		},
		{
			"buffer":0,
			"byteLength":528384,
			"byteOffset":2611112,
			"target":34963
		},
		{
			"buffer":0,
			"byteLength":16488,
			"byteOffset":3139496,
			"target":34962
		},
		{
			"buffer":0,
			"byteLength":16488,
			"byteOffset":3155984,
			"target":34962
		},
		{
			"buffer":0,
			"byteLength":10992,
			"byteOffset":3172472,
			"target":34962
		},
		{
			"buffer":0,
			"byteLength":10992,
			"byteOffset":3183464,
			"target":34962
		},
		{
			"buffer":0,
			"byteLength":11520,
			"byteOffset":3194456,
			"target":34963
		},
		{
			"buffer":0,
			"byteLength":16512,
			"byteOffset":3205976,
			"target":34962
		},
		{
			"buffer":0,
			"byteLength":16512,
			"byteOffset":3222488,
			"target":34962
		},
		{
			"buffer":0,
			"byteLength":11008,
			"byteOffset":3239000,
			"target":34962
		},
		{
			"buffer":0,
			"byteLength":11008,
			"byteOffset":3250008,
			"target":34962
		},
		{
			"buffer":0,
			"byteLength":11520,
			"byteOffset":3261016,
			"target":34963
		},
		{
			"buffer":0,
			"byteLength":4608,
			"byteOffset":3272536,
			"target":34962
		},
		{
			"buffer":0,
			"byteLength":4608,
			"byteOffset":3277144,
			"target":34962
		},
		{
			"buffer":0,
			"byteLength":3072,
			"byteOffset":3281752,
			"target":34962
		},
		{
			"buffer":0,
			"byteLength":3072,
			"byteOffset":3284824,
			"target":34962
		},
		{
			"buffer":0,
			"byteLength":1152,
			"byteOffset":3287896,
			"target":34963
		},
		{
			"buffer":0,
			"byteLength":276,
			"byteOffset":3289048,
			"target":34962
		},
		{
			"buffer":0,
			"byteLength":276,
			"byteOffset":3289324,
			"target":34962
		},
		{
			"buffer":0,
			"byteLength":184,
			"byteOffset":3289600,
			"target":34962
		},
		{
			"buffer":0,
			"byteLength":184,
			"byteOffset":3289784,
			"target":34962
		},
		{
			"buffer":0,
			"byteLength":114,
			"byteOffset":3289968,
			"target":34963
		},
		{
			"buffer":0,
			"byteLength":4608,
			"byteOffset":3290084,
			"target":34962
		},
		{
			"buffer":0,
			"byteLength":4608,
			"byteOffset":3294692,
			"target":34962
		},
		{
			"buffer":0,
			"byteLength":3072,
			"byteOffset":3299300,
			"target":34962
		},
		{
			"buffer":0,
			"byteLength":3072,
			"byteOffset":3302372,
			"target":34962
		},
		{
			"buffer":0,
			"byteLength":1152,
			"byteOffset":3305444,
			"target":34963
		}
	],
	"samplers":[
		{
			"magFilter":9729,
			"minFilter":9987
		}
	],
	"buffers":[
		{
			"byteLength":3306596,
			"uri":"ghoswithtexture1111t.bin"
		}
	]
}
